<?xml version="1.0" standalone="no"?>
<!DOCTYPE svg PUBLIC "-//W3C//DTD SVG 20010904//EN"
 "http://www.w3.org/TR/2001/REC-SVG-20010904/DTD/svg10.dtd">
<svg version="1.0" xmlns="http://www.w3.org/2000/svg"
 width="500.000000pt" height="500.000000pt" viewBox="0 0 500.000000 500.000000"
 preserveAspectRatio="xMidYMid meet">
<metadata>
Created by potrace 1.16, written by Peter Selinger 2001-2019
</metadata>
<g transform="translate(0.000000,500.000000) scale(0.100000,-0.100000)"
fill="#000000" stroke="none">
<path d="M2308 4799 c-16 -9 -18 -31 -18 -228 0 -184 -4 -245 -25 -382 -14
-89 -26 -163 -28 -164 -1 -1 -56 -15 -122 -32 -66 -17 -127 -34 -135 -37 -12
-5 -65 55 -200 224 -101 126 -191 232 -201 235 -23 8 -316 -160 -324 -184 -3
-10 43 -141 102 -292 l108 -274 -102 -101 -102 -102 -265 104 c-146 57 -276
104 -290 104 -21 0 -37 -22 -111 -150 -65 -112 -85 -156 -81 -173 5 -17 276
-242 451 -373 12 -9 11 -21 -10 -85 -13 -41 -29 -102 -36 -137 -10 -49 -18
-64 -34 -67 -11 -2 -143 -23 -294 -45 -150 -22 -278 -43 -282 -46 -15 -9 -11
-370 4 -382 6 -6 143 -30 303 -53 l291 -44 12 -63 c7 -35 22 -97 35 -138 l24
-74 -234 -187 c-153 -122 -234 -193 -234 -205 0 -10 37 -84 82 -163 58 -102
90 -147 105 -151 15 -4 111 29 294 100 l271 107 99 -100 c54 -54 99 -103 99
-108 0 -5 -47 -130 -105 -278 -58 -147 -103 -275 -100 -284 7 -21 285 -181
316 -181 19 0 60 46 208 231 158 197 187 230 205 224 12 -3 72 -19 135 -36 63
-16 116 -31 118 -33 3 -2 23 -132 47 -289 24 -158 49 -293 56 -302 10 -12 41
-15 184 -15 94 0 177 4 185 9 9 6 28 102 58 302 24 161 45 294 46 296 2 1 55
16 118 32 63 17 124 33 136 36 18 6 45 -23 205 -224 147 -185 188 -230 207
-230 33 -1 309 158 317 181 3 11 -39 130 -100 286 -58 147 -106 271 -106 275
0 4 45 52 101 108 l100 100 268 -105 c147 -58 276 -106 288 -106 17 0 39 31
107 149 47 82 86 158 86 169 0 15 -65 72 -234 206 l-233 186 19 57 c11 32 27
94 37 138 l17 80 280 42 c153 23 289 45 301 48 22 5 22 9 25 187 2 110 -1 186
-7 194 -6 9 -111 28 -285 54 -151 22 -285 43 -296 45 -17 4 -23 15 -29 50 -3
25 -17 83 -30 128 -14 45 -25 87 -25 93 0 7 54 55 120 108 l119 96 184 0 c129
0 187 4 195 12 9 9 12 203 12 809 0 712 -2 799 -16 813 -14 14 -135 16 -1192
16 -781 -1 -1183 -4 -1194 -11z m2312 -819 l0 -740 -522 0 -523 -1 -415 -288
-415 -288 -5 276 c-3 152 -9 282 -13 289 -6 9 -53 12 -178 12 l-169 0 0 740 0
740 1120 0 1120 0 0 -740z m-2875 102 c154 -194 184 -227 205 -225 14 1 77 17
140 36 63 19 134 38 158 42 l42 7 0 -365 0 -364 -42 -12 c-69 -21 -188 -86
-256 -142 -144 -116 -255 -300 -294 -485 -63 -307 50 -630 288 -823 95 -77
160 -113 274 -152 84 -29 110 -33 232 -37 150 -5 234 8 349 53 236 93 428 306
499 555 28 97 37 264 20 367 -15 94 -58 217 -103 293 l-33 55 198 138 199 137
274 -2 275 -3 -95 -75 c-69 -55 -95 -81 -95 -97 0 -13 11 -57 25 -98 14 -42
34 -117 45 -167 10 -50 23 -95 28 -100 5 -5 126 -27 268 -48 142 -22 274 -42
292 -45 l32 -6 0 -119 c0 -66 -3 -120 -7 -120 -41 1 -571 -86 -581 -95 -7 -6
-23 -58 -37 -116 -13 -57 -33 -131 -44 -163 -12 -33 -21 -70 -21 -82 0 -19 48
-63 229 -207 l230 -184 -51 -89 c-27 -49 -55 -95 -62 -101 -9 -10 -66 9 -264
87 -139 55 -264 103 -277 106 -19 5 -44 -15 -159 -130 -75 -75 -136 -144 -136
-152 0 -9 47 -136 105 -282 57 -146 103 -267 102 -268 -8 -6 -199 -114 -202
-114 -2 0 -86 103 -186 230 -107 135 -189 230 -199 230 -9 0 -49 -11 -89 -25
-39 -13 -116 -34 -169 -45 -53 -12 -102 -26 -109 -33 -6 -7 -31 -142 -55 -300
l-43 -288 -120 3 -120 3 -42 285 c-24 157 -45 290 -47 296 -2 6 -44 19 -93 28
-48 10 -130 31 -181 48 -51 16 -99 28 -107 26 -7 -2 -89 -97 -180 -213 -92
-115 -175 -218 -184 -228 -16 -17 -22 -15 -118 41 l-100 58 103 264 c57 146
104 273 104 283 0 18 -261 287 -279 287 -6 0 -131 -47 -278 -105 -161 -64
-270 -102 -276 -96 -5 5 -33 51 -62 102 l-53 93 229 180 c175 139 228 186 229
204 0 12 -16 73 -35 136 -19 63 -37 136 -41 164 -3 27 -10 55 -14 63 -6 8
-109 28 -292 56 -156 23 -289 43 -295 43 -10 0 -13 31 -13 120 l0 119 32 6
c18 3 149 23 292 44 158 24 263 44 271 53 6 7 17 44 24 82 7 38 25 110 42 161
16 51 29 103 29 116 0 19 -45 60 -229 207 l-229 182 56 100 c32 54 61 99 66
100 5 0 129 -47 276 -105 147 -58 270 -105 273 -105 15 0 277 274 277 290 0
15 -61 177 -188 496 l-20 50 96 57 c54 31 102 56 107 56 6 0 91 -102 190 -227z
m905 -1225 c0 -315 2 -327 42 -327 11 0 117 68 236 150 l217 151 19 -23 c66
-80 118 -259 117 -408 0 -385 -278 -697 -668 -751 -304 -43 -623 131 -764 416
-62 127 -83 225 -76 370 6 138 23 201 88 326 33 64 63 104 129 169 161 160
323 228 553 229 l107 1 0 -303z"/>
<path d="M2656 4447 c-12 -9 -17 -23 -14 -42 l3 -30 664 -3 c482 -1 668 1 677
9 20 17 17 57 -5 69 -31 16 -1302 14 -1325 -3z"/>
<path d="M4098 4449 c-21 -12 -24 -49 -6 -67 8 -8 51 -12 128 -12 77 0 120 4
128 12 18 18 14 56 -7 68 -25 13 -220 13 -243 -1z"/>
<path d="M2647 4233 c-15 -14 -7 -63 12 -73 21 -11 191 -14 229 -4 26 8 39 48
22 69 -10 12 -39 15 -135 15 -67 0 -125 -3 -128 -7z"/>
<path d="M2970 4221 c-12 -24 -4 -48 21 -61 25 -14 1324 -13 1350 0 21 12 25
50 7 68 -9 9 -176 12 -690 12 -659 0 -678 -1 -688 -19z"/>
<path d="M2652 4018 c-7 -7 -12 -21 -12 -33 0 -12 5 -26 12 -33 17 -17 1209
-17 1226 0 17 17 15 44 -4 62 -14 14 -83 16 -613 16 -451 0 -600 -3 -609 -12z"/>
<path d="M4092 4018 c-7 -7 -12 -21 -12 -33 0 -39 18 -45 140 -45 77 0 120 4
128 12 18 18 14 56 -7 68 -28 14 -234 13 -249 -2z"/>
<path d="M2644 3796 c-3 -8 -4 -25 -2 -38 3 -23 5 -23 132 -23 112 0 130 2
140 18 8 12 8 22 0 35 -10 14 -30 17 -138 20 -103 2 -127 0 -132 -12z"/>
<path d="M2952 3798 c-7 -7 -12 -19 -12 -28 0 -40 -1 -40 716 -40 684 0 693 0
699 20 3 11 3 29 0 40 -6 20 -15 20 -699 20 -525 0 -695 -3 -704 -12z"/>
<path d="M2652 3588 c-7 -7 -12 -21 -12 -33 0 -12 5 -26 12 -33 17 -17 1299
-17 1316 0 7 7 12 21 12 33 0 12 -5 26 -12 33 -17 17 -1299 17 -1316 0z"/>
<path d="M4092 3588 c-7 -7 -12 -21 -12 -33 0 -39 19 -45 133 -45 118 0 147 9
147 43 0 41 -17 47 -140 47 -77 0 -120 -4 -128 -12z"/>
</g>
</svg>
